<mxfile host="app.diagrams.net" agent="Mozilla/5.0 (Windows NT 10.0; Win64; x64) AppleWebKit/537.36 (KHTML, like Gecko) Chrome/133.0.0.0 Safari/537.36" version="26.0.15">
  <diagram name="Page-1" id="vaO4qf5FydGa8UhaZqHD">
    <mxGraphModel grid="1" page="1" gridSize="10" guides="1" tooltips="1" connect="1" arrows="1" fold="1" pageScale="1" pageWidth="850" pageHeight="1100" math="0" shadow="0">
      <root>
        <mxCell id="0" />
        <mxCell id="1" parent="0" />
        <mxCell id="9GnDEZjpLRVy-Dl8pQPh-1" value="" style="shape=cylinder3;whiteSpace=wrap;html=1;boundedLbl=1;backgroundOutline=1;size=15;rounded=1;" vertex="1" parent="1">
          <mxGeometry x="345" y="80" width="110" height="120" as="geometry" />
        </mxCell>
        <mxCell id="9GnDEZjpLRVy-Dl8pQPh-2" value="" style="shape=cylinder3;whiteSpace=wrap;html=1;boundedLbl=1;backgroundOutline=1;size=15;dashed=1;rounded=1;" vertex="1" parent="1">
          <mxGeometry x="610" y="458" width="110" height="120" as="geometry" />
        </mxCell>
        <mxCell id="9GnDEZjpLRVy-Dl8pQPh-33" style="edgeStyle=orthogonalEdgeStyle;rounded=1;orthogonalLoop=1;jettySize=auto;html=1;exitX=-0.025;exitY=0.614;exitDx=0;exitDy=0;entryX=0.5;entryY=0;entryDx=0;entryDy=0;exitPerimeter=0;" edge="1" parent="1" source="9GnDEZjpLRVy-Dl8pQPh-3" target="9GnDEZjpLRVy-Dl8pQPh-18">
          <mxGeometry relative="1" as="geometry">
            <Array as="points">
              <mxPoint x="316" y="320" />
              <mxPoint x="270" y="320" />
              <mxPoint x="270" y="385" />
              <mxPoint x="395" y="385" />
            </Array>
          </mxGeometry>
        </mxCell>
        <mxCell id="9GnDEZjpLRVy-Dl8pQPh-34" style="edgeStyle=orthogonalEdgeStyle;rounded=1;orthogonalLoop=1;jettySize=auto;html=1;entryX=0.5;entryY=0;entryDx=0;entryDy=0;exitX=0;exitY=-0.05;exitDx=0;exitDy=0;exitPerimeter=0;" edge="1" parent="1" source="9GnDEZjpLRVy-Dl8pQPh-36" target="9GnDEZjpLRVy-Dl8pQPh-18">
          <mxGeometry relative="1" as="geometry">
            <mxPoint x="390" y="420" as="targetPoint" />
            <Array as="points">
              <mxPoint x="530" y="318" />
              <mxPoint x="530" y="385" />
              <mxPoint x="395" y="385" />
            </Array>
          </mxGeometry>
        </mxCell>
        <mxCell id="9GnDEZjpLRVy-Dl8pQPh-3" value="" style="rounded=1;whiteSpace=wrap;html=1;" vertex="1" parent="1">
          <mxGeometry x="320" y="280" width="160" height="70" as="geometry" />
        </mxCell>
        <object label="" id="9GnDEZjpLRVy-Dl8pQPh-4">
          <mxCell style="rounded=1;whiteSpace=wrap;html=1;" vertex="1" parent="1">
            <mxGeometry x="595" y="668" width="160" height="70" as="geometry" />
          </mxCell>
        </object>
        <mxCell id="9GnDEZjpLRVy-Dl8pQPh-5" value="" style="endArrow=classic;html=1;rounded=1;entryX=0.5;entryY=1;entryDx=0;entryDy=0;entryPerimeter=0;" edge="1" parent="1" source="9GnDEZjpLRVy-Dl8pQPh-3" target="9GnDEZjpLRVy-Dl8pQPh-1">
          <mxGeometry width="50" height="50" relative="1" as="geometry">
            <mxPoint x="665" y="390" as="sourcePoint" />
            <mxPoint x="715" y="340" as="targetPoint" />
            <Array as="points" />
          </mxGeometry>
        </mxCell>
        <mxCell id="9GnDEZjpLRVy-Dl8pQPh-7" value="" style="endArrow=classic;html=1;rounded=1;entryX=0.5;entryY=1;entryDx=0;entryDy=0;entryPerimeter=0;exitX=0.444;exitY=0;exitDx=0;exitDy=0;exitPerimeter=0;" edge="1" parent="1" source="9GnDEZjpLRVy-Dl8pQPh-4" target="9GnDEZjpLRVy-Dl8pQPh-2">
          <mxGeometry width="50" height="50" relative="1" as="geometry">
            <mxPoint x="400" y="778" as="sourcePoint" />
            <mxPoint x="450" y="728" as="targetPoint" />
          </mxGeometry>
        </mxCell>
        <mxCell id="9GnDEZjpLRVy-Dl8pQPh-8" value="&lt;b style=&quot;line-height: 140%;&quot;&gt;&lt;font face=&quot;Georgia&quot; style=&quot;font-size: 22px;&quot;&gt;Cart ms&lt;/font&gt;&lt;/b&gt;" style="text;strokeColor=none;fillColor=none;align=left;verticalAlign=top;spacingLeft=4;spacingRight=4;overflow=hidden;rotatable=0;points=[[0,0.5],[1,0.5]];portConstraint=eastwest;whiteSpace=wrap;html=1;rounded=1;" vertex="1" parent="1">
          <mxGeometry x="625" y="690" width="125" height="26" as="geometry" />
        </mxCell>
        <mxCell id="9GnDEZjpLRVy-Dl8pQPh-9" value="&lt;span style=&quot;font-size: 22px;&quot;&gt;&lt;b&gt;&lt;font face=&quot;Georgia&quot;&gt;Book ms&lt;/font&gt;&lt;/b&gt;&lt;/span&gt;" style="text;strokeColor=none;fillColor=none;align=left;verticalAlign=top;spacingLeft=4;spacingRight=4;overflow=hidden;rotatable=0;points=[[0,0.5],[1,0.5]];portConstraint=eastwest;whiteSpace=wrap;html=1;rounded=1;" vertex="1" parent="1">
          <mxGeometry x="345" y="302" width="120" height="26" as="geometry" />
        </mxCell>
        <mxCell id="9GnDEZjpLRVy-Dl8pQPh-40" style="edgeStyle=orthogonalEdgeStyle;rounded=1;orthogonalLoop=1;jettySize=auto;html=1;entryX=0;entryY=0.5;entryDx=0;entryDy=0;" edge="1" parent="1">
          <mxGeometry relative="1" as="geometry">
            <mxPoint x="200" y="518" as="sourcePoint" />
            <mxPoint x="342.5" y="440" as="targetPoint" />
            <Array as="points">
              <mxPoint x="270" y="518" />
              <mxPoint x="270" y="440" />
            </Array>
          </mxGeometry>
        </mxCell>
        <mxCell id="9GnDEZjpLRVy-Dl8pQPh-10" value="" style="shape=cylinder3;whiteSpace=wrap;html=1;boundedLbl=1;backgroundOutline=1;size=15;dashed=1;rounded=1;" vertex="1" parent="1">
          <mxGeometry x="92.5" y="458" width="110" height="120" as="geometry" />
        </mxCell>
        <mxCell id="9GnDEZjpLRVy-Dl8pQPh-11" value="" style="rounded=1;whiteSpace=wrap;html=1;" vertex="1" parent="1">
          <mxGeometry x="67.5" y="658" width="160" height="70" as="geometry" />
        </mxCell>
        <mxCell id="9GnDEZjpLRVy-Dl8pQPh-12" value="" style="endArrow=classic;html=1;rounded=1;entryX=0.5;entryY=1;entryDx=0;entryDy=0;entryPerimeter=0;" edge="1" parent="1" source="9GnDEZjpLRVy-Dl8pQPh-11" target="9GnDEZjpLRVy-Dl8pQPh-10">
          <mxGeometry width="50" height="50" relative="1" as="geometry">
            <mxPoint x="412.5" y="768" as="sourcePoint" />
            <mxPoint x="462.5" y="718" as="targetPoint" />
            <Array as="points" />
          </mxGeometry>
        </mxCell>
        <mxCell id="9GnDEZjpLRVy-Dl8pQPh-13" value="&lt;span style=&quot;font-size: 22px;&quot;&gt;&lt;b&gt;&lt;font face=&quot;Georgia&quot;&gt;Payment ms&lt;/font&gt;&lt;/b&gt;&lt;/span&gt;" style="text;strokeColor=none;fillColor=none;align=left;verticalAlign=top;spacingLeft=4;spacingRight=4;overflow=hidden;rotatable=0;points=[[0,0.5],[1,0.5]];portConstraint=eastwest;whiteSpace=wrap;html=1;rounded=1;" vertex="1" parent="1">
          <mxGeometry x="75" y="680" width="162.5" height="26" as="geometry" />
        </mxCell>
        <mxCell id="9GnDEZjpLRVy-Dl8pQPh-14" value="&lt;h2&gt;&lt;i&gt;Book&lt;/i&gt;&lt;/h2&gt;" style="text;strokeColor=none;fillColor=none;align=left;verticalAlign=top;spacingLeft=4;spacingRight=4;overflow=hidden;rotatable=0;points=[[0,0.5],[1,0.5]];portConstraint=eastwest;whiteSpace=wrap;html=1;rounded=1;" vertex="1" parent="1">
          <mxGeometry x="370" y="110" width="110" height="60" as="geometry" />
        </mxCell>
        <mxCell id="9GnDEZjpLRVy-Dl8pQPh-15" value="&lt;pre&gt;Local copy of book&lt;/pre&gt;" style="text;strokeColor=none;fillColor=none;align=left;verticalAlign=top;spacingLeft=4;spacingRight=4;overflow=hidden;rotatable=0;points=[[0,0.5],[1,0.5]];portConstraint=eastwest;whiteSpace=wrap;html=1;rounded=1;" vertex="1" parent="1">
          <mxGeometry x="595" y="418" width="130" height="40" as="geometry" />
        </mxCell>
        <mxCell id="9GnDEZjpLRVy-Dl8pQPh-16" value="&lt;pre&gt;in memmory map of books - quantities&lt;/pre&gt;" style="text;strokeColor=none;fillColor=none;align=left;verticalAlign=top;spacingLeft=4;spacingRight=4;overflow=hidden;rotatable=0;points=[[0,0.5],[1,0.5]];portConstraint=eastwest;whiteSpace=wrap;html=1;rounded=1;" vertex="1" parent="1">
          <mxGeometry x="15" y="418" width="255" height="63" as="geometry" />
        </mxCell>
        <mxCell id="9GnDEZjpLRVy-Dl8pQPh-17" value="Kafka state_engine" style="swimlane;startSize=20;horizontal=1;childLayout=flowLayout;flowOrientation=north;resizable=0;interRankCellSpacing=50;containerType=tree;fontSize=12;direction=west;fontColor=default;strokeColor=none;rounded=1;" vertex="1" parent="1">
          <mxGeometry x="320" y="400" width="150" height="280" as="geometry" />
        </mxCell>
        <mxCell id="9GnDEZjpLRVy-Dl8pQPh-18" value="Event Producer" style="whiteSpace=wrap;html=1;rounded=1;" vertex="1" parent="9GnDEZjpLRVy-Dl8pQPh-17">
          <mxGeometry x="25" y="20" width="100" height="40" as="geometry" />
        </mxCell>
        <mxCell id="9GnDEZjpLRVy-Dl8pQPh-28" style="edgeStyle=orthogonalEdgeStyle;rounded=1;orthogonalLoop=1;jettySize=auto;html=1;noEdgeStyle=1;orthogonal=1;" edge="1" parent="9GnDEZjpLRVy-Dl8pQPh-17" source="9GnDEZjpLRVy-Dl8pQPh-21" target="9GnDEZjpLRVy-Dl8pQPh-27">
          <mxGeometry relative="1" as="geometry">
            <Array as="points">
              <mxPoint x="75" y="162" />
              <mxPoint x="75" y="188" />
            </Array>
          </mxGeometry>
        </mxCell>
        <mxCell id="9GnDEZjpLRVy-Dl8pQPh-21" value="Consumer" style="whiteSpace=wrap;html=1;rounded=1;" vertex="1" parent="9GnDEZjpLRVy-Dl8pQPh-17">
          <mxGeometry x="20" y="110" width="110" height="40" as="geometry" />
        </mxCell>
        <mxCell id="9GnDEZjpLRVy-Dl8pQPh-22" value="" style="html=1;rounded=1;curved=0;sourcePerimeterSpacing=0;targetPerimeterSpacing=0;startSize=6;endSize=6;noEdgeStyle=1;orthogonal=1;" edge="1" parent="9GnDEZjpLRVy-Dl8pQPh-17" source="9GnDEZjpLRVy-Dl8pQPh-18" target="9GnDEZjpLRVy-Dl8pQPh-21">
          <mxGeometry relative="1" as="geometry">
            <Array as="points">
              <mxPoint x="75" y="72" />
              <mxPoint x="75" y="98" />
            </Array>
          </mxGeometry>
        </mxCell>
        <mxCell id="9GnDEZjpLRVy-Dl8pQPh-27" value="Worker" style="whiteSpace=wrap;html=1;rounded=1;" vertex="1" parent="9GnDEZjpLRVy-Dl8pQPh-17">
          <mxGeometry x="25" y="200" width="100" height="40" as="geometry" />
        </mxCell>
        <mxCell id="9GnDEZjpLRVy-Dl8pQPh-30" style="edgeStyle=orthogonalEdgeStyle;rounded=1;orthogonalLoop=1;jettySize=auto;html=1;entryX=0;entryY=0.5;entryDx=0;entryDy=0;" edge="1" parent="1" source="9GnDEZjpLRVy-Dl8pQPh-27" target="9GnDEZjpLRVy-Dl8pQPh-4">
          <mxGeometry relative="1" as="geometry" />
        </mxCell>
        <mxCell id="9GnDEZjpLRVy-Dl8pQPh-32" style="edgeStyle=orthogonalEdgeStyle;rounded=1;orthogonalLoop=1;jettySize=auto;html=1;exitX=0;exitY=0.5;exitDx=0;exitDy=0;entryX=1;entryY=0.5;entryDx=0;entryDy=0;" edge="1" parent="1" source="9GnDEZjpLRVy-Dl8pQPh-27" target="9GnDEZjpLRVy-Dl8pQPh-13">
          <mxGeometry relative="1" as="geometry">
            <Array as="points">
              <mxPoint x="260" y="618" />
              <mxPoint x="260" y="698" />
              <mxPoint x="238" y="698" />
            </Array>
          </mxGeometry>
        </mxCell>
        <mxCell id="9GnDEZjpLRVy-Dl8pQPh-35" value="event (create)" style="text;strokeColor=none;fillColor=none;align=left;verticalAlign=top;spacingLeft=4;spacingRight=4;overflow=hidden;rotatable=0;points=[[0,0.5],[1,0.5]];portConstraint=eastwest;whiteSpace=wrap;html=1;rounded=1;" vertex="1" parent="1">
          <mxGeometry x="270" y="320" width="60" height="40" as="geometry" />
        </mxCell>
        <mxCell id="9GnDEZjpLRVy-Dl8pQPh-36" value="event (delete)" style="text;strokeColor=none;fillColor=none;align=left;verticalAlign=top;spacingLeft=4;spacingRight=4;overflow=hidden;rotatable=0;points=[[0,0.5],[1,0.5]];portConstraint=eastwest;whiteSpace=wrap;html=1;rounded=1;" vertex="1" parent="1">
          <mxGeometry x="480" y="320" width="60" height="40" as="geometry" />
        </mxCell>
        <mxCell id="9GnDEZjpLRVy-Dl8pQPh-38" value="&lt;pre&gt;&lt;font style=&quot;font-size: 9px;&quot;&gt;notify for change&lt;/font&gt;&lt;/pre&gt;" style="text;strokeColor=none;fillColor=none;align=left;verticalAlign=top;spacingLeft=4;spacingRight=4;overflow=hidden;rotatable=1;points=[[0,0.5],[1,0.5]];portConstraint=eastwest;whiteSpace=wrap;html=1;movable=1;resizable=1;deletable=1;editable=1;locked=0;connectable=1;rounded=1;" vertex="1" parent="1">
          <mxGeometry x="245" y="578" width="130" height="40" as="geometry" />
        </mxCell>
        <mxCell id="9GnDEZjpLRVy-Dl8pQPh-39" value="&lt;pre&gt;&lt;font style=&quot;font-size: 9px;&quot;&gt;notify for change&lt;/font&gt;&lt;/pre&gt;" style="text;strokeColor=none;fillColor=none;align=left;verticalAlign=top;spacingLeft=4;spacingRight=4;overflow=hidden;rotatable=1;points=[[0,0.5],[1,0.5]];portConstraint=eastwest;whiteSpace=wrap;html=1;movable=1;resizable=1;deletable=1;editable=1;locked=0;connectable=1;rounded=1;" vertex="1" parent="1">
          <mxGeometry x="455" y="578" width="130" height="40" as="geometry" />
        </mxCell>
        <mxCell id="9GnDEZjpLRVy-Dl8pQPh-41" value="&lt;font style=&quot;font-size: 10px;&quot;&gt;event&lt;/font&gt;&lt;div&gt;&lt;font style=&quot;font-size: 10px;&quot;&gt;(stock change)&lt;/font&gt;&lt;/div&gt;" style="text;strokeColor=none;fillColor=none;align=left;verticalAlign=top;spacingLeft=4;spacingRight=4;overflow=hidden;rotatable=0;points=[[0,0.5],[1,0.5]];portConstraint=eastwest;whiteSpace=wrap;html=1;rounded=1;" vertex="1" parent="1">
          <mxGeometry x="270" y="429.5" width="100" height="40" as="geometry" />
        </mxCell>
        <mxCell id="9GnDEZjpLRVy-Dl8pQPh-42" style="edgeStyle=orthogonalEdgeStyle;rounded=1;orthogonalLoop=1;jettySize=auto;html=1;exitX=1;exitY=0.5;exitDx=0;exitDy=0;entryX=1;entryY=0.25;entryDx=0;entryDy=0;" edge="1" parent="1" source="9GnDEZjpLRVy-Dl8pQPh-18" target="9GnDEZjpLRVy-Dl8pQPh-3">
          <mxGeometry relative="1" as="geometry">
            <mxPoint x="610" y="460" as="targetPoint" />
            <Array as="points">
              <mxPoint x="570" y="440" />
              <mxPoint x="570" y="298" />
            </Array>
          </mxGeometry>
        </mxCell>
        <mxCell id="9GnDEZjpLRVy-Dl8pQPh-43" value="&lt;pre&gt;&lt;font style=&quot;font-size: 9px;&quot;&gt;notify for change &lt;/font&gt;(in batches)&lt;/pre&gt;" style="text;strokeColor=none;fillColor=none;align=left;verticalAlign=top;spacingLeft=4;spacingRight=4;overflow=hidden;rotatable=0;points=[[0,0.5],[1,0.5]];portConstraint=eastwest;whiteSpace=wrap;html=1;rounded=1;" vertex="1" parent="1">
          <mxGeometry x="450" y="420" width="100" height="40" as="geometry" />
        </mxCell>
        <mxCell id="gxP9gbd_v_3hqvbVKiAH-1" value="&lt;pre&gt;&lt;i&gt;state&lt;/i&gt;&lt;/pre&gt;" style="text;whiteSpace=wrap;html=1;" vertex="1" parent="1">
          <mxGeometry x="645" y="498" width="60" height="40" as="geometry" />
        </mxCell>
        <mxCell id="gxP9gbd_v_3hqvbVKiAH-2" value="&lt;pre&gt;&lt;i&gt;state&lt;/i&gt;&lt;/pre&gt;" style="text;whiteSpace=wrap;html=1;" vertex="1" parent="1">
          <mxGeometry x="126.25" y="498" width="60" height="40" as="geometry" />
        </mxCell>
      </root>
    </mxGraphModel>
  </diagram>
</mxfile>
